<?xml version="1.0" encoding="iso-8859-1"?>
<!-- Generator: Adobe Illustrator 16.0.0, SVG Export Plug-In . SVG Version: 6.00 Build 0)  -->
<!DOCTYPE svg PUBLIC "-//W3C//DTD SVG 1.1//EN" "http://www.w3.org/Graphics/SVG/1.1/DTD/svg11.dtd">
<svg version="1.1" id="Layer_1" xmlns="http://www.w3.org/2000/svg" xmlns:xlink="http://www.w3.org/1999/xlink" x="0px" y="0px"
	 width="896.875px" height="977px" viewBox="0 0 896.875 977" style="enable-background:new 0 0 896.875 977;" xml:space="preserve"
	>
<path style="fill-rule:evenodd;clip-rule:evenodd;fill:#40abd9;" d="M664.648,556.386V977H0V192.197h350.533
	C387.471,80.571,492.595,0,616.602,0c154.791,0,280.273,125.489,280.273,280.287C896.875,418.693,796.533,533.588,664.648,556.386z
	 M340.516,232.238H32.031v704.721h600.586V560.088c-5.304,0.299-10.637,0.486-16.016,0.486
	c-154.791,0-280.273-125.489-280.273-280.287C336.328,263.895,337.815,247.858,340.516,232.238z M616.602,40.041
	c-132.678,0-240.234,107.562-240.234,240.246c0,132.684,107.557,240.246,240.234,240.246s240.234-107.562,240.234-240.246
	C856.836,147.603,749.279,40.041,616.602,40.041z M632.617,424.435h-32.031V296.303H472.461v-32.033h128.125V128.131h32.031v136.139
	H768.75v32.033H632.617V424.435z M544.531,660.676c0,19.902-16.133,36.037-36.035,36.037H140.137
	c-19.902,0-36.035-16.134-36.035-36.037c0-19.903,16.134-36.037,36.035-36.037h368.359
	C528.398,624.639,544.531,640.773,544.531,660.676z M276.27,560.574H140.137c-19.902,0-36.035-16.134-36.035-36.037
	c0-19.903,16.134-36.037,36.035-36.037H276.27c19.902,0,36.035,16.134,36.035,36.037
	C312.305,544.439,296.171,560.574,276.27,560.574z M268.262,424.435H140.137c-19.902,0-36.035-16.134-36.035-36.037
	c0-19.902,16.134-36.037,36.035-36.037h128.125c19.902,0,36.035,16.134,36.035,36.037
	C304.297,408.3,288.164,424.435,268.262,424.435z M140.137,760.779h376.367c19.902,0,36.035,16.134,36.035,36.037
	c0,19.903-16.133,36.037-36.035,36.037H140.137c-19.902,0-36.035-16.134-36.035-36.037
	C104.102,776.913,120.235,760.779,140.137,760.779z"/>
</svg>
